{
    "asset" : {
        "generator" : "Khronos glTF Blender I/O v1.1.46",
        "version" : "2.0"
    },
    "scene" : 0,
    "scenes" : [
        {
            "name" : "Scene",
            "nodes" : [
                0,
                7
            ]
        }
    ],
    "nodes" : [
        {
            "mesh" : 0,
            "name" : "base",
            "scale" : [
                0.5,
                0.5,
                0.5
            ],
            "translation" : [
                0.5,
                0.5,
                0
            ]
        },
        {
            "mesh" : 1,
            "name" : "left sub axis",
            "rotation" : [
                0,
                0,
                -0.7071068286895752,
                0.7071068286895752
            ],
            "scale" : [
                0.5,
                0.5,
                5.369091033935547
            ],
            "translation" : [
                -3.278353943869661e-08,
                0.15624996274709702,
                -0.25
            ]
        },
        {
            "mesh" : 2,
            "name" : "left wheel",
            "rotation" : [
                0,
                0,
                -0.7071068286895752,
                0.7071068286895752
            ],
            "scale" : [
                0.5,
                0.5,
                0.5
            ],
            "translation" : [
                2.3282140659830475e-08,
                0,
                -0.203125
            ]
        },
        {
            "mesh" : 3,
            "name" : "main axis",
            "rotation" : [
                0,
                0,
                -0.70710688829422,
                0.7071066498756409
            ],
            "scale" : [
                0.3878786265850067,
                0.3878786563873291,
                0.5
            ],
            "translation" : [
                7.946628244326348e-09,
                0,
                0
            ]
        },
        {
            "mesh" : 4,
            "name" : "right sub axis",
            "rotation" : [
                0,
                0,
                -0.2181432545185089,
                0.9759168028831482
            ],
            "scale" : [
                0.5,
                0.5,
                5.369091033935547
            ],
            "translation" : [
                -1.0927848848041322e-08,
                0.1562500074505806,
                0.25
            ]
        },
        {
            "mesh" : 5,
            "name" : "right wheel",
            "rotation" : [
                0,
                0,
                -0.7071068286895752,
                0.7071068286895752
            ],
            "scale" : [
                0.5,
                0.5,
                0.5
            ],
            "translation" : [
                -7.388882394820939e-09,
                0,
                0.203125
            ]
        },
        {
            "children" : [
                1,
                2,
                3,
                4,
                5
            ],
            "name" : "engine wheel",
            "rotation" : [
                0.5,
                -0.5,
                0.5000000596046448,
                0.5000000596046448
            ]
        },
        {
            "children" : [
                6
            ],
            "name" : "Armature",
            "translation" : [
                0.25,
                0.5,
                0.375
            ]
        }
    ],
    "animations" : [
        {
            "channels" : [
                {
                    "sampler" : 0,
                    "target" : {
                        "node" : 6,
                        "path" : "translation"
                    }
                },
                {
                    "sampler" : 1,
                    "target" : {
                        "node" : 6,
                        "path" : "rotation"
                    }
                },
                {
                    "sampler" : 2,
                    "target" : {
                        "node" : 6,
                        "path" : "scale"
                    }
                }
            ],
            "name" : "ArmatureAction",
            "samplers" : [
                {
                    "input" : 22,
                    "interpolation" : "LINEAR",
                    "output" : 23
                },
                {
                    "input" : 22,
                    "interpolation" : "LINEAR",
                    "output" : 24
                },
                {
                    "input" : 22,
                    "interpolation" : "LINEAR",
                    "output" : 25
                }
            ]
        }
    ],
    "materials" : [
        {
            "doubleSided" : true,
            "emissiveFactor" : [
                0,
                0,
                0
            ],
            "name" : "Concrete",
            "pbrMetallicRoughness" : {
                "baseColorTexture" : {
                    "index" : 0,
                    "texCoord" : 0
                },
                "metallicFactor" : 0.019999999552965164,
                "roughnessFactor" : 0.5740385055541992
            }
        },
        {
            "doubleSided" : true,
            "emissiveFactor" : [
                0,
                0,
                0
            ],
            "name" : "Iron",
            "pbrMetallicRoughness" : {
                "baseColorFactor" : [
                    0.4575316309928894,
                    0.4575316309928894,
                    0.4575316309928894,
                    1
                ],
                "metallicRoughnessTexture" : {
                    "index" : 1,
                    "texCoord" : 0
                }
            }
        },
        {
            "doubleSided" : true,
            "emissiveFactor" : [
                0,
                0,
                0
            ],
            "name" : "Paint3",
            "pbrMetallicRoughness" : {
                "baseColorFactor" : [
                    0.029765387997031212,
                    0,
                    0.5488528609275818,
                    1
                ],
                "metallicFactor" : 0.5,
                "metallicRoughnessTexture" : {
                    "index" : 2,
                    "texCoord" : 0
                }
            }
        }
    ],
    "meshes" : [
        {
            "name" : "Cube",
            "primitives" : [
                {
                    "attributes" : {
                        "POSITION" : 0,
                        "NORMAL" : 1,
                        "TEXCOORD_0" : 2
                    },
                    "indices" : 3,
                    "material" : 0
                }
            ]
        },
        {
            "name" : "Cylinder.004",
            "primitives" : [
                {
                    "attributes" : {
                        "POSITION" : 4,
                        "NORMAL" : 5,
                        "TEXCOORD_0" : 6
                    },
                    "indices" : 7,
                    "material" : 1
                }
            ]
        },
        {
            "name" : "Cylinder",
            "primitives" : [
                {
                    "attributes" : {
                        "POSITION" : 8,
                        "NORMAL" : 9,
                        "TEXCOORD_0" : 10
                    },
                    "indices" : 11,
                    "material" : 2
                }
            ]
        },
        {
            "name" : "Cylinder.001",
            "primitives" : [
                {
                    "attributes" : {
                        "POSITION" : 12,
                        "NORMAL" : 13,
                        "TEXCOORD_0" : 14
                    },
                    "indices" : 15,
                    "material" : 1
                }
            ]
        },
        {
            "name" : "Cylinder.004",
            "primitives" : [
                {
                    "attributes" : {
                        "POSITION" : 16,
                        "NORMAL" : 17,
                        "TEXCOORD_0" : 18
                    },
                    "indices" : 7,
                    "material" : 1
                }
            ]
        },
        {
            "name" : "Cylinder",
            "primitives" : [
                {
                    "attributes" : {
                        "POSITION" : 19,
                        "NORMAL" : 20,
                        "TEXCOORD_0" : 21
                    },
                    "indices" : 11,
                    "material" : 2
                }
            ]
        }
    ],
    "textures" : [
        {
            "sampler" : 0,
            "source" : 0
        },
        {
            "source" : 1
        },
        {
            "source" : 2
        }
    ],
    "images" : [
        {
            "mimeType" : "image/png",
            "name" : "concrete",
            "uri" : "concrete.png"
        },
        {
            "mimeType" : "image/png",
            "name" : "metall_special",
            "uri" : "metall_special.png"
        },
        {
            "mimeType" : "image/png",
            "name" : "smooth_paint",
            "uri" : "smooth_paint.png"
        }
    ],
    "accessors" : [
        {
            "bufferView" : 0,
            "componentType" : 5126,
            "count" : 24,
            "max" : [
                3,
                1,
                0.19999992847442627
            ],
            "min" : [
                -1,
                -1,
                -1.7881390590446244e-08
            ],
            "type" : "VEC3"
        },
        {
            "bufferView" : 1,
            "componentType" : 5126,
            "count" : 24,
            "type" : "VEC3"
        },
        {
            "bufferView" : 2,
            "componentType" : 5126,
            "count" : 24,
            "type" : "VEC2"
        },
        {
            "bufferView" : 3,
            "componentType" : 5123,
            "count" : 36,
            "type" : "SCALAR"
        },
        {
            "bufferView" : 4,
            "componentType" : 5126,
            "count" : 56,
            "max" : [
                0.07078123092651367,
                0.0700000673532486,
                0.014277379028499126
            ],
            "min" : [
                -0.06921875476837158,
                -0.07000003755092621,
                -0.01604505628347397
            ],
            "type" : "VEC3"
        },
        {
            "bufferView" : 5,
            "componentType" : 5126,
            "count" : 56,
            "type" : "VEC3"
        },
        {
            "bufferView" : 6,
            "componentType" : 5126,
            "count" : 56,
            "type" : "VEC2"
        },
        {
            "bufferView" : 7,
            "componentType" : 5123,
            "count" : 132,
            "type" : "SCALAR"
        },
        {
            "bufferView" : 8,
            "componentType" : 5126,
            "count" : 126,
            "max" : [
                0.5343685746192932,
                0.3942875862121582,
                0.05000004172325134
            ],
            "min" : [
                -0.3942876160144806,
                -0.3942875862121582,
                -0.050000015646219254
            ],
            "type" : "VEC3"
        },
        {
            "bufferView" : 9,
            "componentType" : 5126,
            "count" : 126,
            "type" : "VEC3"
        },
        {
            "bufferView" : 10,
            "componentType" : 5126,
            "count" : 126,
            "type" : "VEC2"
        },
        {
            "bufferView" : 11,
            "componentType" : 5123,
            "count" : 360,
            "type" : "SCALAR"
        },
        {
            "bufferView" : 12,
            "componentType" : 5126,
            "count" : 70,
            "max" : [
                0.11999999731779099,
                0.11999999731779099,
                0.4943605065345764
            ],
            "min" : [
                -0.11999999731779099,
                -0.11999999731779099,
                -0.4943605065345764
            ],
            "type" : "VEC3"
        },
        {
            "bufferView" : 13,
            "componentType" : 5126,
            "count" : 70,
            "type" : "VEC3"
        },
        {
            "bufferView" : 14,
            "componentType" : 5126,
            "count" : 70,
            "type" : "VEC2"
        },
        {
            "bufferView" : 15,
            "componentType" : 5123,
            "count" : 180,
            "type" : "SCALAR"
        },
        {
            "bufferView" : 16,
            "componentType" : 5126,
            "count" : 56,
            "max" : [
                0.07078123092651367,
                0.0700000673532486,
                0.014277379028499126
            ],
            "min" : [
                -0.06921875476837158,
                -0.07000003755092621,
                -0.01604505628347397
            ],
            "type" : "VEC3"
        },
        {
            "bufferView" : 17,
            "componentType" : 5126,
            "count" : 56,
            "type" : "VEC3"
        },
        {
            "bufferView" : 18,
            "componentType" : 5126,
            "count" : 56,
            "type" : "VEC2"
        },
        {
            "bufferView" : 19,
            "componentType" : 5126,
            "count" : 126,
            "max" : [
                0.5343685746192932,
                0.3942875862121582,
                0.05000004172325134
            ],
            "min" : [
                -0.3942876160144806,
                -0.3942875862121582,
                -0.050000015646219254
            ],
            "type" : "VEC3"
        },
        {
            "bufferView" : 20,
            "componentType" : 5126,
            "count" : 126,
            "type" : "VEC3"
        },
        {
            "bufferView" : 21,
            "componentType" : 5126,
            "count" : 126,
            "type" : "VEC2"
        },
        {
            "bufferView" : 22,
            "componentType" : 5126,
            "count" : 101,
            "max" : [
                4.166666666666667
            ],
            "min" : [
                0
            ],
            "type" : "SCALAR"
        },
        {
            "bufferView" : 23,
            "componentType" : 5126,
            "count" : 101,
            "type" : "VEC3"
        },
        {
            "bufferView" : 24,
            "componentType" : 5126,
            "count" : 101,
            "type" : "VEC4"
        },
        {
            "bufferView" : 25,
            "componentType" : 5126,
            "count" : 101,
            "type" : "VEC3"
        }
    ],
    "bufferViews" : [
        {
            "buffer" : 0,
            "byteLength" : 288,
            "byteOffset" : 0
        },
        {
            "buffer" : 0,
            "byteLength" : 288,
            "byteOffset" : 288
        },
        {
            "buffer" : 0,
            "byteLength" : 192,
            "byteOffset" : 576
        },
        {
            "buffer" : 0,
            "byteLength" : 72,
            "byteOffset" : 768
        },
        {
            "buffer" : 0,
            "byteLength" : 672,
            "byteOffset" : 840
        },
        {
            "buffer" : 0,
            "byteLength" : 672,
            "byteOffset" : 1512
        },
        {
            "buffer" : 0,
            "byteLength" : 448,
            "byteOffset" : 2184
        },
        {
            "buffer" : 0,
            "byteLength" : 264,
            "byteOffset" : 2632
        },
        {
            "buffer" : 0,
            "byteLength" : 1512,
            "byteOffset" : 2896
        },
        {
            "buffer" : 0,
            "byteLength" : 1512,
            "byteOffset" : 4408
        },
        {
            "buffer" : 0,
            "byteLength" : 1008,
            "byteOffset" : 5920
        },
        {
            "buffer" : 0,
            "byteLength" : 720,
            "byteOffset" : 6928
        },
        {
            "buffer" : 0,
            "byteLength" : 840,
            "byteOffset" : 7648
        },
        {
            "buffer" : 0,
            "byteLength" : 840,
            "byteOffset" : 8488
        },
        {
            "buffer" : 0,
            "byteLength" : 560,
            "byteOffset" : 9328
        },
        {
            "buffer" : 0,
            "byteLength" : 360,
            "byteOffset" : 9888
        },
        {
            "buffer" : 0,
            "byteLength" : 672,
            "byteOffset" : 10248
        },
        {
            "buffer" : 0,
            "byteLength" : 672,
            "byteOffset" : 10920
        },
        {
            "buffer" : 0,
            "byteLength" : 448,
            "byteOffset" : 11592
        },
        {
            "buffer" : 0,
            "byteLength" : 1512,
            "byteOffset" : 12040
        },
        {
            "buffer" : 0,
            "byteLength" : 1512,
            "byteOffset" : 13552
        },
        {
            "buffer" : 0,
            "byteLength" : 1008,
            "byteOffset" : 15064
        },
        {
            "buffer" : 0,
            "byteLength" : 404,
            "byteOffset" : 16072
        },
        {
            "buffer" : 0,
            "byteLength" : 1212,
            "byteOffset" : 16476
        },
        {
            "buffer" : 0,
            "byteLength" : 1616,
            "byteOffset" : 17688
        },
        {
            "buffer" : 0,
            "byteLength" : 1212,
            "byteOffset" : 19304
        }
    ],
    "samplers" : [
        {
            "magFilter" : 9728,
            "minFilter" : 9984
        }
    ],
    "buffers" : [
        {
            "byteLength" : 20516,
            "uri" : "test.bin"
        }
    ]
}
